<svg width="127" height="21" viewBox="0 0 127 21" fill="none" xmlns="http://www.w3.org/2000/svg">
<path d="M16.2563 11.94C15.4588 11.04 14.2932 10.47 12.7596 10.17C13.8331 9.84 14.7226 9.24 15.3668 8.4C16.0109 7.59 16.3483 6.6 16.3483 5.37C16.3483 3.66 15.6735 2.34 14.3852 1.41C13.097 0.480001 11.2874 0 8.95627 0H0V1.32H8.89493C10.7659 1.32 12.2075 1.68 13.2197 2.4C14.2319 3.12 14.7533 4.14 14.7533 5.49C14.7533 6.87 14.2319 7.92 13.2197 8.64C12.2075 9.36 10.7659 9.69 8.89493 9.69H0V11.01H9.56971C11.6247 11.01 13.2197 11.37 14.2932 12.06C15.3668 12.78 15.9189 13.86 15.9189 15.33C15.9189 16.83 15.3668 17.91 14.2932 18.63C13.2197 19.35 11.6554 19.68 9.56971 19.68H0V21H9.56971C12.1768 21 14.1399 20.52 15.4895 19.56C16.8084 18.6 17.4831 17.25 17.4831 15.45C17.4831 14.04 17.0537 12.87 16.2563 11.94Z" fill="#F7EFEA"/>
<path d="M23.064 0V21H24.6283V0H23.064Z" fill="#F7EFEA"/>
<path d="M36.22 1.38V21H37.7843V1.38H45.5136V0H28.4906V1.38H36.22Z" fill="#F7EFEA"/>
<path d="M65.6193 11.94C64.8218 11.04 63.6563 10.47 62.1227 10.17C63.1962 9.84 64.0857 9.24 64.7298 8.4C65.3739 7.59 65.7113 6.6 65.7113 5.37C65.7113 3.66 65.0365 2.34 63.7483 1.41C62.4601 0.480001 60.6504 0 58.3193 0H49.363V1.32H58.258C60.129 1.32 61.5706 1.68 62.5827 2.4C63.5949 3.12 64.1164 4.14 64.1164 5.49C64.1164 6.87 63.5949 7.92 62.5827 8.64C61.5706 9.36 60.129 9.69 58.258 9.69H49.363V11.01H58.9327C60.9878 11.01 62.5827 11.37 63.6563 12.06C64.7298 12.78 65.2819 13.86 65.2819 15.33C65.2819 16.83 64.7298 17.91 63.6563 18.63C62.5827 19.35 61.0185 19.68 58.9327 19.68H49.363V21H58.9327C61.5399 21 63.5029 20.52 64.8525 19.56C66.1714 18.6 66.8462 17.25 66.8462 15.45C66.8462 14.04 66.4167 12.87 65.6193 11.94Z" fill="#F79C7F"/>
<path d="M86.3215 9.66H72.427V11.01H86.3215V9.66ZM86.3215 0H72.427V1.38H86.3215V0ZM72.427 19.62V21H86.3215V19.62H72.427Z" fill="#F79C7F"/>
<path d="M100.827 0H99.2628L89.3864 21H91.0733L100.03 1.68L109.017 21H110.704L100.827 0Z" fill="#F79C7F"/>
<path d="M117.633 1.38V21H119.197V1.38H126.927V0H109.904V1.38H117.633Z" fill="#F79C7F"/>
</svg>
