<svg width="43" height="28" viewBox="0 0 43 28" fill="none" xmlns="http://www.w3.org/2000/svg">
<path d="M8.925 6.55529C8.48717 6.06118 7.84726 5.74823 7.00528 5.58353C7.59467 5.40235 8.08302 5.07294 8.43665 4.61176C8.79028 4.16706 8.97552 3.62353 8.97552 2.94824C8.97552 2.00941 8.60505 1.28471 7.89778 0.774118C7.19052 0.26353 6.19698 0 4.91717 0H0V0.724706H4.88349C5.91071 0.724706 6.70217 0.922353 7.25788 1.31765C7.81359 1.71294 8.09985 2.27294 8.09985 3.01412C8.09985 3.77176 7.81359 4.34824 7.25788 4.74353C6.70217 5.13882 5.91071 5.32 4.88349 5.32H0V6.04471H5.25396C6.38221 6.04471 7.25788 6.24235 7.84726 6.62118C8.43665 7.01647 8.73977 7.60941 8.73977 8.41647C8.73977 9.24 8.43665 9.83294 7.84726 10.2282C7.25788 10.6235 6.39905 10.8047 5.25396 10.8047H0V11.5294H5.25396C6.68533 11.5294 7.76307 11.2659 8.50401 10.7388C9.22812 10.2118 9.59859 9.47059 9.59859 8.48235C9.59859 7.70823 9.36283 7.06588 8.925 6.55529Z" fill="#F7EFEA"/>
<path d="M12.6626 0V11.5294H13.5214V0H12.6626Z" fill="#F7EFEA"/>
<path d="M19.8855 0.757647V11.5294H20.7443V0.757647H24.9879V0H15.6419V0.757647H19.8855Z" fill="#F7EFEA"/>
<path d="M8.92499 23.0259C8.48716 22.5318 7.84727 22.2188 7.00529 22.0541C7.59468 21.8729 8.08302 21.5435 8.43666 21.0823C8.79029 20.6376 8.97551 20.0941 8.97551 19.4188C8.97551 18.48 8.60505 17.7553 7.89778 17.2447C7.19052 16.7341 6.19698 16.4706 4.91717 16.4706H0V17.1953H4.88349C5.91071 17.1953 6.70217 17.3929 7.25787 17.7882C7.81358 18.1835 8.09986 18.7435 8.09986 19.4847C8.09986 20.2423 7.81358 20.8188 7.25787 21.2141C6.70217 21.6094 5.91071 21.7906 4.88349 21.7906H0V22.5153H5.25396C6.38221 22.5153 7.25788 22.7129 7.84726 23.0918C8.43665 23.4871 8.73976 24.08 8.73976 24.8871C8.73976 25.7106 8.43665 26.3035 7.84726 26.6988C7.25788 27.0941 6.39905 27.2753 5.25396 27.2753H0V28H5.25396C6.68533 28 7.76306 27.7365 8.50401 27.2094C9.22811 26.6823 9.59858 25.9412 9.59858 24.9529C9.59858 24.1788 9.36282 23.5365 8.92499 23.0259Z" fill="#F79C7F"/>
<path d="M20.2909 21.7741H12.6625V22.5153H20.2909V21.7741ZM20.2909 16.4706H12.6625V17.2282H20.2909V16.4706ZM12.6625 27.2423V28H20.2909V27.2423H12.6625Z" fill="#F79C7F"/>
<path d="M28.2548 16.4706H27.3959L21.9736 28H22.8998L27.8169 17.3929L32.7509 28H33.6771L28.2548 16.4706Z" fill="#F79C7F"/>
<path d="M37.4816 17.2282V28H38.3404V17.2282H42.584V16.4706H33.238V17.2282H37.4816Z" fill="#F79C7F"/>
</svg>
